<?xml version="1.0" encoding="UTF-8"?>
<!DOCTYPE svg PUBLIC "-//W3C//DTD SVG 1.1//EN" "http://www.w3.org/Graphics/SVG/1.1/DTD/svg11.dtd">
<!-- Creator: CorelDRAW X6 -->
<svg xmlns="http://www.w3.org/2000/svg" xml:space="preserve" width="37.7567in" height="10.8981in" version="1.1" style="shape-rendering:geometricPrecision; text-rendering:geometricPrecision; image-rendering:optimizeQuality; fill-rule:evenodd; clip-rule:evenodd"
viewBox="0 0 12779 3688"
 xmlns:xlink="http://www.w3.org/1999/xlink">
 <defs>
  <style type="text/css">
   <![CDATA[
    .fil18 {fill:none}
    .fil9 {fill:#09AAF5}
    .fil6 {fill:#15A7E7}
    .fil7 {fill:#17A9C9}
    .fil1 {fill:#1F7D5B}
    .fil14 {fill:#2C9BB6}
    .fil2 {fill:#30C051}
    .fil16 {fill:#349796}
    .fil13 {fill:#58A7B1}
    .fil17 {fill:#68BAD4}
    .fil15 {fill:#69C8E5}
    .fil12 {fill:#C3FEFF}
    .fil11 {fill:#D4FFFF}
    .fil10 {fill:#DCFFFF}
    .fil8 {fill:#E1FFFF}
    .fil5 {fill:#E4FCFB}
    .fil4 {fill:#FDFDFD}
    .fil3 {fill:white}
    .fil0 {fill:#1F7D5B;fill-opacity:0.149020}
   ]]>
  </style>
   <clipPath id="id0">
    <path d="M0 0l12779 0 0 3688 -12779 0 0 -3688z"/>
   </clipPath>
   <clipPath id="id1">
    <path d="M0 0l12779 0 0 3688 -12779 0 0 -3688z"/>
   </clipPath>
 </defs>
 <g id="Layer_x0020_1">
  <metadata id="CorelCorpID_0Corel-Layer"/>
  <g style="clip-path:url(#id0)">
   <polygon class="fil0" points="0,0 12779,0 12779,3688 0,3688 "/>
  </g>
  <g style="clip-path:url(#id1)">
   <g id="_610918000">
    <g>
     <path id="1" class="fil1" d="M9880 1695c1,153 8,148 -114,215 21,70 123,182 140,253l-364 -2 -1 -156c-40,13 -62,42 -100,76 -26,22 -76,60 -87,80 46,178 388,339 629,124 80,-71 136,-184 136,-339 0,-94 21,-393 -9,-454 -16,29 -145,125 -180,158l-50 45z"/>
     <path class="fil2" d="M9353 2160c11,-20 61,-58 87,-80 39,-33 60,-62 100,-76l0 -392c60,-4 151,-6 207,-1 74,6 89,45 132,83l50 -45c35,-33 164,-129 180,-158 -71,-75 -281,-107 -408,-106 -148,2 -294,46 -395,102 1,151 -29,586 48,673z"/>
     <path class="fil1" d="M11560 1939c85,-15 148,-11 187,41 -3,97 -100,88 -187,75l1 -116zm0 -221c86,-13 175,-17 155,87 -43,29 -88,35 -156,20l1 -108zm202 158c37,-37 78,-44 81,-119 9,-189 -253,-146 -406,-146l4 550c113,-1 479,43 423,-189 -14,-56 -49,-77 -102,-96z"/>
     <path class="fil1" d="M10517 1715c63,-2 172,-15 168,67 -4,74 -104,57 -171,57l3 -124zm185 218c53,-33 93,-47 106,-117 44,-236 -239,-216 -415,-203l1 548 117 -1 1 -218c65,0 51,-13 79,32 27,43 59,137 99,187l135 0c-14,-64 -101,-156 -124,-228z"/>
     <path class="fil1" d="M12036 1611c21,69 100,170 143,234 97,148 33,142 58,316l115 -3c19,-180 -37,-177 61,-323 34,-50 130,-180 140,-224l-134 0c-45,64 -93,170 -132,197l-115 -196 -137 -1z"/>
     <polygon class="fil1" points="11056,2162 11171,2162 11166,1611 11051,1611 "/>
    </g>
    <g>
     <path class="fil1" d="M3597 2193l-2 5 0 6 -4 9 1 5 -2 6 -1 6 -2 5 0 6 -4 9 1 5 -2 6 0 7 -2 6 -3 17 -3 7 0 7 -1 5 -1 5 -2 6c-1,10 -4,11 -1,20l2 4 10 22c-3,3 -5,3 -15,3 -25,0 -113,3 -123,-2l-3 -7 -3 -3 -3 -7 -2 -4 0 -1 -2 -4 -1 -11 4 -4 0 -2 2 -4 3 -8 2 -5 0 -1 2 -4 3 -9 2 -4 0 -2 4 -4 0 -3 2 -4 0 -2 2 -3 0 -2 4 -4 0 -2 2 -4 3 -9 2 -4 5 -13 2 -4 3 -9 2 -3 0 -2 3 -5 3 -5 0 -3 2 -3 0 -107 9 4 2 3 4 2 3 3 7 4 3 3 5 2 3 3 5 2 3 3 15 10c4,0 3,-1 3,3l5 2 3 3 15 10 3 3 5 2c4,0 3,-1 3,3l8 4 3 3 4 2 3 3c4,6 3,0 2,10l-2 6 0 6zm-151 -852l765 0c0,18 -34,167 -43,206 -2,12 -5,23 -7,33l-36 170c-4,22 -11,46 -15,68l-15 65c15,0 93,-1 104,2 11,3 16,9 17,16l0 3c-1,15 -20,33 -52,43 -25,8 -53,12 -84,12l-29 142c-2,11 -4,16 -6,27l-47 220c-4,19 -5,50 -16,50l-765 0 30 -144c10,-40 20,-100 30,-143l70 -330c2,-13 10,-37 9,-47 -1,-10 -37,-68 -7,-197 4,-18 13,-59 22,-69 13,-14 19,-13 45,-13l13 -60c2,-9 5,-19 7,-29 2,-10 1,-25 10,-25zm261 657l-2 5 -1 3 -2 4 0 5 -3 5 0 4 -3 6 0 3 -1 5 2 6 3 3 5 9 3 3 5 9 3 3 2 4 3 2 5 10 3 3 2 5c4,0 3,-1 3,3l0 1 3 2 2 5 3 3 5 10 3 3 5 9 3 3 2 4 3 2 5 10 3 3 1 6c5,3 3,23 3,30l1 49 -4 4 0 3 -2 4 -2 8 -4 4 0 2 -2 4 -3 9 -2 4 -3 9 -2 3 0 3 -4 4 0 2 -2 4 -3 9 -2 5 0 1 -3 5 1 16 -1 19 -4 -2c-4,0 -3,1 -3,-2l-2 -3 -10 -7 -3 -2 -3 -2 -2 -3 -10 -7 -3 -3 -11 -7 -2 -3c-4,0 -3,1 -3,-3l-10 -7 -3 -3 -3 -3 -10 -7 -2 -3 -3 -3c-4,-3 -6,-4 -9,-7l-2 -3 -13 -9 -3 -3 -2 -3 -3 -5 3 -3 9 -5 3 -3 5 -2 3 -3 4 -2 3 -3 9 -5 3 -3 5 -2 3 -3 10 -5 3 -3 4 -2 2 -3 7 -1 -4 -6 -3 -3 -14 -10 -3 -3 -5 -2 -3 -3 -14 -10 -3 -3 -8 -4 -3 -3 -5 -2 -2 -3 -5 -2 -3 -3 -8 -5 -3 -3c-6,-3 -10,-6 -15,-10l-3 -3 -5 -2 -3 -3 -7 -4 -3 -3 -4 -3c-4,0 -3,1 -3,-3l-5 -2 -3 -2 -3 -3 -5 -2 -2 -3 -4 -3 -3 -3 -7 -4 -3 -3 -5 -2 -3 -3 -15 -10 -3 -3 -5 -2 -3 -3 -3 -2 -5 -2 -2 -3 -7 0 -5 3 -11 2 -5 3 -2 -1 -4 3 -3 0 -4 2 -4 1 -4 2 -10 3 -3 2 -10 2 -5 3 -10 2 -4 2 -4 0 -5 3 -1 0 -5 2 -3 1 -4 2 -3 1 -5 2 -1 0 -5 3 -11 2 -4 3 -2 -1 -5 3 -31 -4c-3,-1 -9,0 -2,-7l2 -15 4 -9 -1 -5 2 -6 1 -6 2 -5 0 -5 4 -9 2 -17 2 -5 0 -6 2 -7 1 -8 2 -6 1 -6 1 -5 6 -31 2 -5 0 -4 2 -5 1 -8 3 -8 0 -5 2 -5 0 -5 3 -5 -1 -5 4 -9 -1 -5 2 -6 0 -7 2 -6 3 -17 2 -6 3 -17 2 -6 8 -43c0,-12 -1,-5 3,-7l1 3 3 3 2 4 3 3 5 7 3 2 7 11 2 3 3 3c13,14 17,20 33,32l3 3 2 3 8 4 3 3 8 4 3 3 4 2 3 2 5 2 3 3 1 0 3 3 10 5 4 2 2 0 3 2 2 0 3 2 1 0 4 2 8 3 4 2 2 0 5 3 2 0 4 2 4 1 4 2 9 2 5 3 37 8 6 2 50 5 18 2 30 0c4,5 2,-1 2,8 3,5 4,16 4,24 -1,17 3,22 -1,39zm169 -81l27 13 4 2 9 3 4 2 2 0 5 4 1 0 5 2 11 3 5 2 4 0 7 4 6 -1 6 3 9 1 -1 16 -2 6 0 4 -3 5 -3 9 -2 4 0 1 -2 4 -8 18 -2 4 0 2 -2 3 0 2 -2 3 -8 18 -2 4 0 1 -2 4 -6 14 -2 3 0 3 -2 3 0 2 -2 4 -1 3 -2 4 -5 15 -3 4 0 3 -2 4 -3 11 -3 6 1 19 2 4c5,7 0,2 8,7l3 2 18 0 3 6 0 6c1,3 3,5 3,11 0,2 0,3 0,5 -1,4 -1,3 -3,6l-8 4 -4 3c-28,3 -34,-2 -53,-13l-3 -3 -3 -3 -5 -7 -3 -2 -3 -7 -2 -4 0 -1 -2 -4c-7,-30 -2,-43 -3,-71l2 -9 0 -12 2 -8 8 -57 2 -7 0 -7c1,-7 0,-8 4,-13l1 -44 -2 -7 1 -8 -4 -13 6 4zm-91 -96l3 -2c0,-4 -1,-3 3,-3l5 -4c0,-4 -1,-3 3,-3l4 -2 3 -2 2 0 4 -2 1 0 5 -3 4 0 5 -1 21 -1 8 3 13 5 3 3 14 10 3 3 5 2 3 3 4 2 3 2 5 2 3 3 1 0 3 3 5 2 3 3 1 0 3 2 10 5 3 3 1 0 3 2 2 0 3 2 1 0 4 2 1 0 4 2 3 0 3 2 1 0 4 2 14 5 4 2 2 0 4 3 16 4 5 3 4 0 4 2 4 1 5 2 4 0 7 4 15 2 6 2 5 -1 14 5 8 -1 11 2 39 0 17 -2 28 0 5 2 2 1c1,1 8,9 1,9l0 1 -2 3 -2 3 -21 9 -5 3 -12 3 -5 2 -19 2 -12 4 -8 -1 -12 3 -58 0 -9 -2 -28 -3 -6 -2 -6 -1 -5 -1 -4 0 -5 -3 -4 0 -6 -3 -12 -3 -4 -2 -3 0 -5 -3 -10 -2 -4 -2 -2 0 -4 -4 -2 0 -4 -2 -8 -2 -4 -4 -30 -14 -4 -3 -2 0 -3 -2 -9 -5 -3 -3 -5 -2 -3 -3 -12 -7 -3 -3 -5 -2 -3 -3 -7 -4 -3 -3 -10 -7 -3 -3c-8,-6 -15,-8 -12,-18zm113 -164l0 8 0 1 3 2 3 3 5 7 3 3c4,4 4,5 7,10l3 2 5 7c4,0 3,-1 3,3l3 2 4 8 3 2 2 5 3 3 2 3 2 5 3 3 2 4 3 3 0 2 2 4 0 1 2 4 0 2 2 3 0 4 3 4 -1 2 3 6 0 4 2 5 0 7 2 6 0 8 3 12 0 14 3 13c0,3 0,5 -1,7 0,0 -1,2 -1,2 0,0 -1,1 -1,2l-3 -2 -1 0 -4 -2 -2 0 -3 -2 -5 -2 -3 -3 -1 0 -3 -2 -5 -2 -3 -3 -1 0 -3 -3 -5 -2c-4,0 -3,1 -3,-3l-5 -2 -3 -3 -8 -4 -3 -3 -4 -2 -3 -3 -8 -4 -2 -3c-4,-2 -4,-2 -7,-4l-3 -3 -7 -4 -3 -3 -8 -5 -2 -3 -3 -3 -9 -3 -7 -2 -29 0 -6 3 -5 0 -5 1 -4 0 -4 4 -16 7 -2 3 -13 9c0,4 1,3 -3,3l-7 10 -3 2 -2 4 -3 3 0 5c4,0 3,-1 3,3 8,6 13,7 15,17l-3 4c-2,9 -6,16 -10,23 0,4 1,3 -3,3 -21,26 -22,14 -62,15l-19 -3 -19 0 -9 -2 -9 0 -7 -2 -24 -3 -7 -3 -6 0 -5 -2 -5 0 -7 -4 -12 -2 -4 -2 -4 0 -6 -3 -2 0 -4 -3 -3 0 -3 -2 -3 -1 -5 -2 -1 0 -4 -4 -3 0 -4 -2 -2 0 -3 -2 -1 0 -4 -2 -11 -5 -4 -2 -1 0 -3 -2 -2 0 -3 -3 -4 -2 -3 -3 -5 -2 -3 -3 -4 -2 -3 -3 -7 -5 -3 -3 -3 -3c-14,-11 -19,-16 -30,-30l-3 -3 -5 -7 -3 -3 -7 -12 -3 -3 -5 -9c-4,0 -2,1 -2,-4l0 -1 -2 -4 0 -2 -2 -3 -10 -30 -4 -7 0 -4 -1 -5 -1 -7 -2 -6c0,-14 -3,-29 -3,-44 0,-14 2,-28 3,-42l2 -7 1 -9 2 -6 6 -31 2 -5 3 -13 3 -6 5 -20 4 -4 2 -3 3 -3 1 0 5 -2 5 -1c8,-3 7,-3 15,0l8 0 11 3 25 2 7 2 45 5 6 2 26 3 9 2 11 0 8 2 8 0 8 2 8 0 11 -1 5 -2 3 -2 2 0 3 -2 1 0 4 -2 14 -7 3 -2 49 0 9 2 9 0 9 2 24 3 5 2 4 0 5 2 3 0 4 4 16 11 3 3 3 2 3 3 22 20 3 3 2 3 2 3 3 2 2 2 2 3 2 3 2 2 3 2 3 2 3 2 2 3 2 3 3 2 2 3 3 3c7,6 10,13 17,20l3 3 3 3 7 10 3 3 5 7 3 3 3 4 2 3c4,6 4,5 1,11l-1 15z"/>
     <path class="fil3" d="M3754 1663l-15 1 -9 2 -10 0 -8 2 -8 0 -11 3 -24 2 -6 3c0,-10 -1,-1 3,-5l7 -5 3 -3 3 -2 2 -3c6,-4 10,-7 15,-12 0,-4 -1,-3 3,-3l3 -3c6,-5 9,-7 15,-12l2 -3 8 -6 27 24 2 3 2 3 3 2 3 2 2 3 3 3 -10 1 -7 2zm-362 -186l-1 0 -3 3 -2 3 -4 4 -5 20 -3 6 -3 13 -2 5 -6 31 -2 6 -1 9 -2 7c0,14 -3,28 -3,42 0,15 2,30 3,44l2 6 1 7 1 5 0 4 4 7 10 30 2 3 0 2 2 4 0 1 2 4 5 9c4,0 3,-1 3,3l7 12 3 3 5 7 3 3c11,14 16,19 30,30l3 3 3 3 7 5 3 3 4 2 3 3 5 2 3 3 4 2 3 3 2 0 3 2 1 0c4,0 4,-1 4,2l11 5 4 2 1 0 3 2 2 0 4 2 3 0 4 4 1 0 5 2 3 1 3 2 3 0 4 3 2 0 6 3 4 0 4 2 12 2 7 4 5 0 5 2 6 0 7 3 24 3 7 2 9 0 9 2 19 0c10,0 12,-1 19,3 39,-2 41,11 62,-15l3 -3c4,-7 8,-14 10,-23l3 -4c-2,-10 -7,-11 -15,-17l-3 -3 0 -5c0,-4 -1,-3 3,-3l2 -4 3 -2 7 -10 3 -3 13 -9 2 -3 16 -7 4 -4 4 0 5 -1 5 0 6 -3 29 0 7 2 9 3 3 3 2 3 8 5 3 3 7 4c4,0 3,-1 3,3 4,3 3,2 7,4l2 3 8 4 3 3 4 2 3 3 8 4 3 3 5 2 3 3 5 2 3 3 1 0c4,0 3,-1 3,3l5 2 3 2 1 0c4,0 3,-1 3,3l5 2 3 2 2 0 4 2 1 0 3 2c0,-1 1,-2 1,-2 0,0 1,-1 1,-2 1,-2 1,-5 1,-7l-3 -13 0 -14 -3 -12 0 -8 -2 -6 0 -7 -2 -5 0 -4 -3 -6 1 -2 -3 -4 0 -4 -2 -3 0 -2 -2 -4 0 -1c-4,0 -3,1 -2,-4l0 -2 -3 -3 -2 -4 -3 -3 -2 -5 -2 -3 -3 -3 -2 -5 -3 -2 -4 -8 -3 -2 -3 -3 -5 -7 -3 -2c-3,-5 -3,-6 -7,-10l-3 -3 -5 -7c-4,0 -3,1 -3,-3l-3 -2 0 -1 0 -8 1 -15 -1 -11 -2 -3 -3 -4 -3 -3 -5 -7 -3 -3 -7 -10 -3 -3 -3 -3c-7,-7 -10,-13 -17,-20l-3 -3 -2 -3 -3 -2 -2 -3 -2 -3 -3 -2 -3 -2 -3 -2 -2 -2 -2 -3 -2 -3 -2 -2 -3 -2 -2 -3 -2 -3 -3 -3 -22 -20 -3 -3 -3 -2 -3 -3 -16 -11 -4 -4 -3 0 -5 -2 -4 0 -5 -2 -24 -3 -9 -2 -9 0 -9 -2 -49 0 -3 2 -14 7 -4 2 -1 0 -3 2 -2 0 -3 2 -5 2c-4,4 -4,5 -11,1l-8 0 -8 -2 -8 0 -8 -2 -11 0 -9 -2 -26 -3 -6 -2 -45 -5 -7 -2 -25 -2 -11 -3 -8 0 -15 0 -5 1 -5 2z"/>
     <path class="fil1" d="M1700 2013l35 -169c40,0 100,-7 127,22 29,31 15,106 -37,133 -32,17 -77,14 -125,14zm48 -229c1,-11 5,-28 8,-40l16 -82c9,-45 0,-37 49,-37 83,0 81,91 26,136 -29,24 -49,22 -99,22zm-148 279c0,7 0,10 8,10l176 0c29,0 50,-8 72,-17 24,-10 37,-19 55,-33 51,-41 86,-140 36,-190 -12,-12 -35,-27 -59,-27 1,0 1,-1 2,-1 0,0 1,-1 2,-1l31 -19c63,-47 87,-150 14,-196 -24,-15 -60,-25 -99,-25l-120 -1c-23,2 -20,31 -28,62l-37 179c-3,19 -7,35 -10,52l-26 127c-4,15 -15,66 -15,78z"/>
     <path class="fil3" d="M3376 1780l-8 43 -2 6 -3 17 -2 6 -3 17 -2 6 0 7 -2 6 1 5 -4 9 1 5 -3 5 0 5 -2 5 0 5 -3 8 -1 8 -2 5 0 4 -2 5 -6 31 -1 5 -1 6 -2 6 -1 8 -2 7 0 6 -2 5 -2 17c-2,9 0,5 -4,9l0 5 -2 5 -1 6 -2 6 1 5 -4 9 -2 15 2 7 31 4 5 -3 2 1 4 -3 11 -2 5 -3 1 0 5 -2 3 -1 4 -2 3 -1 5 -2 1 0 5 -3 4 0 4 -2 10 -2 5 -3 10 -2 3 -2 10 -3 4 -2 4 -1 4 -2 3 0 4 -3 2 1 5 -3 11 -2 5 -3 7 0 2 3 5 2 3 2 3 3 5 2 3 3 15 10 3 3 5 2 3 3 7 4 3 3 4 3 2 3 5 2 3 3 3 2 5 2c4,0 3,-1 3,3l4 3 3 3 7 4 3 3 5 2 3 3c6,3 10,7 15,10l3 3 8 5 3 3 5 2 2 3 5 2 3 3 8 4 3 3 14 10 3 3 5 2 3 3 14 10 3 3 4 6 -7 1 -2 3 -4 2 -3 3 -10 5 -3 3 -5 2 -3 3 -9 5 -3 3 -4 2 -3 3 -5 2c0,4 1,3 -3,3l-9 5 -3 3 3 5 2 3 3 3 13 9 2 3c4,3 5,4 9,7l3 3 2 3 10 7 3 3 3 3 10 7 3 3 2 3 11 7 3 3 10 7 2 3 3 2 3 2 10 7 2 3 3 2c5,-8 1,-9 5,-17l-1 -16 3 -5 0 -1 2 -5 3 -9 2 -4 0 -2 4 -4 0 -3 2 -3 3 -9 2 -4 3 -9 2 -4 0 -2 4 -4 2 -8 2 -4 0 -3 4 -4 -1 -49 -3 -30 -1 -6 -3 -3 -5 -10 -3 -2 -2 -4 -3 -3 -5 -9 -3 -3 -5 -10 -3 -3 -2 -5 -3 -2 0 -1 -3 -3 -2 -5 -3 -3 -5 -10 -3 -2 -2 -4 -3 -3 -5 -9 -3 -3 -5 -9 -3 -3 -2 -6 1 -5 0 -3 3 -6 0 -4 3 -5 0 -5 2 -4 1 -3 2 -5c4,-17 1,-22 1,-39 -3,-5 -4,-16 -4,-24 0,-9 2,-3 -2,-8l-30 0 -18 -2 -50 -5 -6 -2 -37 -8 -5 -3 -9 -2 -4 -2 -4 -1 -4 -2 -2 0 -5 -3 -2 0 -4 -2 -8 -3c-5,0 -4,2 -4,-2l-1 0 -3 -2 -2 0 -3 -2 -2 0c-5,0 -4,1 -4,-2l-10 -5 -3 -3 -1 0c-4,0 -3,1 -3,-3l-5 -2 -3 -2 -4 -2 -3 -3 -8 -4 -3 -3 -8 -4 -2 -3 -3 -3c-15,-12 -20,-19 -33,-32 -4,0 -3,1 -3,-3l-2 -3 -7 -11 -3 -2 -5 -7 -3 -3 -2 -4 -3 -3 -1 -3 -3 7z"/>
     <path class="fil1" d="M2158 2023c-80,0 -65,-77 -54,-132 4,-22 11,-43 18,-63 35,-98 129,-75 151,-48 26,32 15,88 6,122 -8,31 -8,33 -21,59 -6,12 -10,15 -16,24 -6,8 -13,13 -22,19 -14,9 -40,19 -61,19zm-30 60c46,0 85,-14 116,-40 10,-8 17,-18 27,-26 0,56 46,55 86,55 11,0 13,-12 14,-21 8,-47 10,-32 -11,-40 -22,-8 -4,-55 2,-87l42 -212c0,-12 -48,-8 -68,-8 -11,0 -17,20 -21,32 -4,11 1,5 -7,11 -5,-23 -38,-41 -58,-47 -38,-12 -96,-3 -132,18 -21,13 -42,32 -56,52 -44,65 -88,226 -17,285 14,11 17,12 34,19 11,4 33,8 48,8z"/>
     <path class="fil1" d="M2961 1862l0 0zm0 0c0,-10 4,-26 6,-37l54 -258c-14,1 -46,20 -59,27 -49,25 -37,5 -52,79 -3,13 -4,25 -7,36l-60 290c-18,92 -31,74 67,74 12,-17 15,-50 21,-75 1,-5 2,-13 3,-19 3,-12 8,-53 16,-59l90 151c10,5 63,2 79,2 27,0 20,-3 -5,-41 -11,-17 -20,-33 -31,-49l-62 -99 91 -87c8,-8 14,-12 23,-20l47 -44c8,-8 18,-14 21,-25 -7,-3 -73,-7 -89,4 -26,18 -134,137 -153,149z"/>
     <path class="fil1" d="M2568 1761l0 0zm0 0c-3,-11 -1,-19 -7,-28 -17,-29 -70,-31 -84,-24 -8,4 -7,1 -12,23 -3,13 -3,17 -3,32 41,9 25,24 15,80 -2,14 -6,35 -10,48 -4,16 -7,34 -11,50l-20 98c-3,20 -14,33 15,33 20,0 40,0 61,0 15,-22 8,-14 15,-43 2,-10 4,-15 6,-25 2,-9 3,-17 5,-25 13,-53 24,-150 52,-187 19,-24 50,-44 84,-33 32,10 33,46 29,83 -1,10 -3,15 -5,25 -2,8 -3,18 -5,25 -4,16 -7,33 -11,50 -2,7 -3,17 -5,26 -6,28 -9,50 7,74 7,12 21,20 35,25 12,4 41,8 54,2 3,-2 7,5 11,-22 2,-11 4,-19 4,-31 -20,-10 -32,0 -22,-54l21 -103c8,-35 16,-74 -3,-108 -11,-19 -22,-31 -42,-41 -37,-19 -97,-21 -133,6l-42 43z"/>
     <path class="fil1" d="M277 2063c0,16 45,10 73,10 21,0 22,-26 25,-45l38 -181c38,0 124,4 153,-3 6,-13 14,-45 10,-60 -31,-7 -112,-3 -151,-3 4,-8 8,-34 10,-45l14 -69c10,-49 -2,-39 44,-39 37,0 74,0 111,0 19,0 40,4 46,-9 3,-7 9,-37 9,-46 0,-8 -7,-10 -15,-10l-249 0c-22,0 -20,22 -26,49 -14,61 -26,130 -40,194l-46 223c-3,12 -6,21 -6,34z"/>
     <path class="fil1" d="M1079 1837c0,87 96,78 146,108 48,29 -9,100 -117,69 -50,-14 -45,-22 -64,2 -5,6 -15,13 -15,22 0,27 69,43 101,43 24,0 51,2 74,-4 10,-3 21,-5 29,-8 19,-8 33,-16 48,-28 45,-34 70,-117 31,-157 -40,-40 -144,-34 -144,-72 0,-64 77,-59 120,-47 15,4 24,12 46,12 6,-21 69,-41 -18,-70 -41,-14 -99,-14 -141,0 -52,17 -96,69 -96,131z"/>
     <path class="fil1" d="M1464 1706c-22,0 -43,-4 -51,7 -7,9 -9,38 -7,49 15,3 27,3 45,3l-23 118c-4,18 -9,38 -13,58 -7,38 -20,83 11,114 24,24 61,20 96,20 15,0 17,-11 20,-23 12,-57 -3,-28 -30,-41 -27,-13 -13,-53 -6,-80l22 -109c3,-18 10,-38 12,-56 40,0 70,16 70,-53 0,-9 -47,-5 -58,-5l23 -113 -74 37c-34,17 -22,13 -37,76z"/>
     <path class="fil1" d="M943 1746c0,-38 -36,-38 -63,-40 -16,-1 -31,-6 -38,10 -3,8 -8,34 -8,45 26,13 36,-7 17,79l-39 182c-3,20 -20,53 7,53 89,0 62,12 87,-82l11 -47c6,-33 22,-117 36,-138 24,-38 57,-32 89,-32 12,0 14,-18 15,-30 7,-41 16,-48 -8,-48 -69,0 -88,36 -106,48z"/>
     <path class="fil1" d="M712 2083c15,0 18,-6 21,-19 2,-10 6,-25 6,-34 0,-11 -25,-3 -25,-20 0,-41 10,-83 21,-122l37 -172c0,-13 -53,-8 -75,-8 -13,0 -15,25 -20,45l-18 83c-2,11 -4,16 -6,27 -9,42 -33,130 -26,169 7,39 48,51 85,51z"/>
     <path class="fil3" d="M3486 2201l-2 3 0 3 -3 5 -3 5 0 2 -2 3 -3 9 -2 4 -5 13 -2 4 -3 9 -2 4 0 2 -4 4 0 2 -2 3 0 2 -2 4 0 3 -4 4 0 2 -2 4 -3 9 -2 4 0 1 -2 5 -3 8 -2 4 0 2 -4 4 1 11c4,0 3,-1 2,4l0 1 2 4 3 7c4,0 3,-1 3,3l3 7 139 0 -10 -22 -2 -4c-3,-9 -1,-10 1,-20l2 -6 1 -5 1 -5 0 -7 3 -7 3 -17 2 -6 0 -7 2 -6 -1 -5 4 -9 0 -6 2 -5 1 -6 2 -6 -1 -5 4 -9 0 -6 2 -5 0 -6 2 -6c1,-10 2,-4 -2,-10l-3 -3 -4 -2 -3 -3 -8 -4 -3 -3 -5 -2 -3 -3 -15 -10 -3 -3 -5 -2c-4,0 -3,1 -3,-3l-15 -10 -3 -3 -5 -2c-4,0 -3,1 -3,-3l-5 -2 -3 -3 -7 -4 -3 -3 -4 -2 -2 -3 -9 -4 0 107z"/>
     <path class="fil3" d="M3822 1798l-4 0 -5 3 -1 0 -4 2 -2 0 -3 2 -4 2 -3 3 -5 4 -3 3 -3 2c-3,10 5,11 12,18l3 3 10 7 3 3 7 4 3 3 5 2c4,0 3,-1 3,3l12 7c4,0 3,-1 3,3l5 2 3 3 9 5 3 2 2 0c4,0 4,-1 4,3l30 14 4 4 8 2 4 2 2 0 4 4 2 0 4 2 10 2 5 3 3 0 4 2 12 3 6 3 4 0 5 3 4 0 5 1 6 1 6 2 28 3 9 2 58 0 12 -3 8 1c5,-4 4,-3 12,-4l19 -2 5 -2 12 -3 5 -3 21 -9 2 -3 2 -3 0 -1 -1 -9 -2 -1 -5 -2 -28 0 -17 2 -39 0 -11 -2 -8 1c-9,-1 -8,0 -14,-5l-5 1 -6 -2 -15 -2 -7 -4 -4 0 -5 -2 -4 -1 -4 -2 -4 0 -5 -3 -16 -4 -4 -3 -2 0 -4 -2 -14 -5 -4 -2 -1 0 -3 -2 -3 0 -4 -2 -1 0 -4 -2 -1 0 -3 -2 -2 0 -3 -2 -1 0c-4,0 -3,1 -3,-3l-10 -5 -3 -2 -1 0 -3 -3 -5 -2 -3 -3 -1 0c-4,0 -3,1 -3,-3l-5 -2 -3 -2 -4 -2 -3 -3 -5 -2c-4,0 -3,1 -3,-3l-14 -10 -3 -3 -13 -5 -8 -3 -21 1 -5 1z"/>
     <path class="fil3" d="M3874 1927l-1 8 2 7 -1 44c-1,8 -1,8 -4,13l0 7 -2 7 -8 57 -2 8 0 12 -2 9c0,28 -4,42 3,71l2 4 0 1 2 4 3 7 3 2 5 7 3 3 3 3c18,11 25,15 53,13l4 -3 8 -4 0 -21 0 -6 -3 -6 -18 0 -3 -2c-8,-4 -3,0 -8,-7 -4,0 -2,1 -2,-4l-1 -19 3 -6 3 -11 2 -4 0 -3 3 -4 5 -15 2 -4 1 -3c0,-4 -1,-4 2,-4l0 -2 2 -3 0 -3 2 -3 6 -14 2 -4 0 -1 2 -4 8 -18c0,-4 -1,-3 2,-3l0 -2 2 -3 0 -2 2 -4 8 -18 2 -4 0 -1 2 -4 3 -9 3 -5 0 -4 2 -6 1 -16 -9 -1 -6 -3 -6 1 -7 -4 -4 0 -5 -2 -11 -3 -5 -2 -1 0 -5 -4 -2 0 -4 -2 -9 -3 -4 -2 -27 -13c-3,5 -4,-7 -2,10z"/>
     <path class="fil1" d="M2737 2287c-7,0 -16,0 -21,-4 -18,-12 -5,-47 15,-56 51,-22 49,59 6,59zm15 -91c-8,0 -9,0 -14,-4 -14,-12 -3,-41 21,-41 33,0 18,45 -8,45zm-53 -18c0,19 0,15 20,33 -18,2 -45,28 -45,48 0,19 -3,37 18,47 51,24 110,-12 110,-50 0,-15 2,-23 -9,-34 -3,-3 -5,-4 -8,-7l-8 -7c9,-2 19,-9 25,-16 20,-23 16,-67 -27,-67 -36,0 -75,10 -75,53z"/>
     <path class="fil1" d="M2888 2227c-36,0 -21,-75 20,-75 32,0 18,75 -20,75zm-53 -20c0,31 16,45 48,45 23,0 25,-12 38,-20 -18,78 -61,51 -88,50 -4,7 -7,11 -8,20 31,16 61,18 88,-5l19 -22c20,-32 54,-149 -21,-149 -51,0 -75,41 -75,80z"/>
     <path class="fil1" d="M3046 2244l-40 0 50 -60c-1,22 -10,38 -10,60zm-83 23l75 0c0,20 -6,27 -8,43l33 0c4,-9 9,-30 10,-43 8,0 16,2 20,-2 3,-3 5,-14 5,-20l-20 0 23 -111c0,-7 -14,-5 -23,-5 -10,0 -56,58 -61,65 -10,12 -19,22 -29,34 -10,13 -25,18 -26,40z"/>
     <path class="fil1" d="M1909 2186c0,13 1,19 11,30 21,23 62,18 62,46 0,37 -75,24 -88,18 -4,7 -8,11 -10,20 7,4 8,6 17,8 5,1 15,3 21,4 15,2 27,2 42,-2 54,-15 72,-76 20,-100 -9,-5 -67,-19 -32,-50 18,-16 51,-3 75,-3 3,-6 6,-10 8,-18 -48,-32 -126,-6 -126,48z"/>
     <path class="fil1" d="M2166 2197c-4,-19 -15,-18 -30,-18 -11,0 -8,11 -8,23l8 0c0,15 -1,16 -4,29 -2,11 -4,21 -6,30 -3,11 -4,15 -6,27 -3,24 -12,23 20,23 12,0 11,-16 13,-27 2,-11 5,-21 7,-33 11,-69 53,-55 53,-33 0,22 -8,41 -11,62 -3,24 10,31 39,31 1,-10 3,-10 3,-23l-8 0c0,-43 21,-71 5,-96 -10,-16 -42,-21 -60,-10 -9,6 -10,10 -16,15z"/>
     <path class="fil1" d="M2463 2234l-33 0c1,-39 48,-44 48,-23 0,13 3,23 -15,23zm-73 33c0,65 87,51 101,30 -7,-30 -26,2 -52,-8 -14,-5 -24,-31 -6,-33 45,-5 78,17 78,-48 0,-37 -76,-57 -108,7 -5,9 -12,36 -12,50z"/>
     <path class="fil1" d="M702 1651c22,5 50,3 73,3 17,0 25,-68 25,-75 0,-16 -34,-10 -68,-10 -24,0 -20,30 -29,60 -3,12 -4,14 -2,23z"/>
     <path class="fil1" d="M2583 2181c15,-1 23,-9 38,-13 -2,10 -5,23 -7,33l-7 36c-3,16 -14,57 -14,72 37,0 32,5 38,-32l24 -112c7,-41 28,-53 -55,-14 -15,7 -18,8 -18,30z"/>
     <path class="fil1" d="M2269 2264c0,15 1,27 14,38 23,20 70,10 81,-6 -6,-26 -19,-4 -42,-7 -7,-1 -12,-3 -15,-7 -12,-14 -7,-85 39,-85 22,0 26,17 40,-10 -12,-8 -24,-14 -40,-14 -16,0 -31,5 -42,13 -6,4 -2,1 -7,5 -18,16 -29,49 -29,72z"/>
     <path class="fil1" d="M2040 2282c0,22 10,28 33,28 12,0 5,-10 10,-20 -15,-8 -11,-3 -4,-40 2,-11 4,-22 7,-33 11,-47 11,-38 -25,-38l-15 76c-2,9 -5,16 -5,28z"/>
     <path class="fil1" d="M3720 1625l-2 3c-6,5 -9,7 -15,12l-3 3 -3 3c-5,5 -9,8 -15,12l-2 3 -3 2 -3 3 -7 5 3 3 24 -2 11 -3 8 0 8 -2 10 0 9 -2 15 -1 7 -2 10 -1 -3 -3 -2 -3 -3 -2 -3 -2 -2 -3c-4,0 -2,1 -2,-3l-27 -24 -8 6z"/>
     <path class="fil1" d="M2098 2154c3,-11 5,-15 5,-30 -35,0 -30,-2 -34,9 0,1 -3,16 -3,16 2,8 20,5 32,5z"/>
     <path class="fil1" d="M3582 2367l-139 0c10,5 99,2 123,2 10,0 12,1 15,-3z"/>
     <path class="fil1" d="M3773 2195c0,-7 2,-28 -3,-30l3 30z"/>
     <path class="fil1" d="M3709 1960c0,-8 -1,-19 -4,-24 0,8 1,19 4,24z"/>
     <path class="fil1" d="M3944 2207c2,-2 2,-1 3,-6 0,-1 0,-3 0,-5 0,-6 -1,-7 -3,-11l0 21z"/>
     <path class="fil1" d="M3733 2362l4 2 1 -19c-3,8 0,9 -5,17z"/>
     <path class="fil1" d="M3870 2000c4,-5 3,-5 4,-13 -4,5 -3,6 -4,13z"/>
     <path class="fil1" d="M3609 1499l-11 1c7,5 7,4 11,-1z"/>
     <path class="fil1" d="M3310 2115l-2 -7c-7,7 -1,6 2,7z"/>
     <path class="fil1" d="M3417 1474c-8,-3 -7,-3 -15,0l15 0z"/>
     <path class="fil1" d="M3900 1642c3,-6 4,-6 -1,-11l1 11z"/>
     <path class="fil1" d="M4194 1911c7,0 0,-7 -1,-9l1 9z"/>
     <path class="fil1" d="M3686 1890c-7,-3 -10,-3 -19,-3l19 3z"/>
     <path class="fil1" d="M3874 1927c-2,-17 -2,-4 2,-10l-6 -4 4 13z"/>
     <path class="fil1" d="M3671 1673l-3 -3c-4,4 -3,-5 -3,5l6 -3z"/>
     <path class="fil1" d="M4084 1901l-14 -5c5,4 5,4 14,5z"/>
     <path class="fil1" d="M4128 1937c-8,1 -6,0 -12,4l12 -4z"/>
     <path class="fil1" d="M3376 1780l3 -7c-4,2 -3,-6 -3,7z"/>
     <path class="fil1" d="M3572 2126c0,-4 1,-3 -3,-3 0,4 -1,3 3,3z"/>
     <path class="fil1" d="M3547 2136c0,-4 1,-3 -3,-3 0,4 -1,3 3,3z"/>
     <path class="fil1" d="M3317 2057c4,-4 3,0 4,-9l-4 9z"/>
     <path class="fil1" d="M3515 1892l-4 -2c0,4 -1,2 4,2z"/>
     <path class="fil1" d="M3912 2164l-2 -4c0,5 -2,4 2,4z"/>
     <path class="fil1" d="M3433 2346c0,-5 1,-4 -2,-4l2 4z"/>
     <path class="fil1" d="M3500 1884l-4 -2c0,4 -1,2 4,2z"/>
     <path class="fil1" d="M3872 1890c0,-4 1,-3 -4,-3l4 3z"/>
     <path class="fil1" d="M3489 1842c0,-4 1,-2 -4,-2l4 2z"/>
     <path class="fil1" d="M3930 2089c-4,0 -3,-1 -2,4l2 -4z"/>
     <path class="fil1" d="M3386 1742l-2 -4c0,4 -1,4 2,4z"/>
     <path class="fil1" d="M3960 1747l-2 -4c0,4 -1,4 2,4z"/>
     <path class="fil1" d="M3441 2361c0,-4 1,-3 -3,-3l3 3z"/>
     <path class="fil1" d="M3751 1872l-3 3c4,0 3,1 3,-3z"/>
     <path class="fil1" d="M3733 2102c0,-4 1,-3 -3,-3l3 3z"/>
     <path class="fil1" d="M3943 1852l-3 -3c0,4 -1,3 3,3z"/>
     <path class="fil1" d="M3393 1754c0,-4 1,-3 -3,-3l3 3z"/>
     <path class="fil1" d="M3959 1842c0,-4 1,-3 -3,-3l3 3z"/>
     <path class="fil1" d="M3580 2159c0,-4 1,-3 -3,-3l3 3z"/>
     <path class="fil1" d="M3748 1816c-4,0 -3,-1 -3,3l3 -3z"/>
     <path class="fil1" d="M3912 1834l-3 -3c0,4 -1,3 3,3z"/>
     <path class="fil1" d="M3935 1827l-3 -3c0,4 -1,3 3,3z"/>
     <path class="fil1" d="M3955 2033c-4,0 -2,-1 -2,3l2 -3z"/>
     <path class="fil1" d="M3635 2254l-3 3c4,0 3,1 3,-3z"/>
     <path class="fil1" d="M3482 1874l-3 -3c0,4 -1,3 3,3z"/>
     <path class="fil1" d="M3748 1827c0,-4 1,-3 -3,-3l3 3z"/>
     <path class="fil1" d="M3947 1835c0,-4 1,-3 -3,-3l3 3z"/>
     <path class="fil1" d="M3846 1875c0,-4 1,-3 -3,-3l3 3z"/>
     <path class="fil1" d="M3522 2119l-3 -3c0,4 -1,3 3,3z"/>
     <path class="fil1" d="M3889 1819l-3 -3c0,4 -1,3 3,3z"/>
     <path class="fil1" d="M3799 1809c-4,0 -3,-1 -3,3l3 -3z"/>
     <path class="fil1" d="M3889 1795c0,-4 1,-3 -3,-3l3 3z"/>
     <path class="fil1" d="M3791 1816c-4,0 -3,-1 -3,3l3 -3z"/>
     <path class="fil1" d="M3831 1865c0,-4 1,-3 -3,-3l3 3z"/>
     <path class="fil1" d="M3904 1671l-3 -3c0,4 -1,3 3,3z"/>
     <path class="fil1" d="M3685 2322l-3 -3c0,4 -1,3 3,3z"/>
     <path class="fil1" d="M3700 1643c-4,0 -3,-1 -3,3l3 -3z"/>
     <path class="fil1" d="M3763 1796l-3 3c4,0 3,1 3,-3z"/>
     <path class="fil1" d="M3409 1812l-3 -3c0,4 -1,3 3,3z"/>
     <path class="fil1" d="M3758 1646l-2 -3c0,4 -1,3 2,3z"/>
     <path class="fil1" d="M3733 2362l-3 -2c0,4 -1,3 3,2z"/>
     <path class="fil1" d="M3929 1703c0,-4 1,-3 -3,-3l3 3z"/>
     <polygon class="fil1" points="3899,1631 3897,1627 "/>
     <polygon class="fil1" points="3703,1641 3700,1643 "/>
     <polygon class="fil1" points="3760,1648 3758,1646 "/>
     <polygon class="fil1" points="3763,1651 3760,1648 "/>
     <polygon class="fil1" points="3768,1656 3766,1653 "/>
     <polygon class="fil1" points="3683,1658 3680,1661 "/>
     <polygon class="fil1" points="3680,1661 3678,1663 "/>
     <polygon class="fil1" points="3761,1661 3754,1663 "/>
     <polygon class="fil1" points="3898,1665 3899,1657 "/>
     <polygon class="fil1" points="3678,1663 3675,1666 "/>
     <polygon class="fil1" points="3739,1664 3730,1666 "/>
     <polygon class="fil1" points="3721,1666 3713,1668 "/>
     <polygon class="fil1" points="3901,1668 3899,1666 "/>
     <polygon class="fil1" points="3705,1668 3695,1671 "/>
     <polygon class="fil1" points="3363,1676 3361,1670 "/>
     <polygon class="fil1" points="3912,1681 3909,1678 "/>
     <polygon class="fil1" points="3365,1687 3364,1682 "/>
     <polygon class="fil1" points="3922,1693 3919,1691 "/>
     <polygon class="fil1" points="3369,1698 3365,1691 "/>
     <polygon class="fil1" points="3932,1706 3929,1703 "/>
     <polygon class="fil1" points="3940,1716 3936,1713 "/>
     <polygon class="fil1" points="3945,1723 3942,1721 "/>
     <polygon class="fil1" points="3947,1726 3945,1723 "/>
     <polygon class="fil1" points="3381,1732 3379,1728 "/>
     <polygon class="fil1" points="3952,1734 3949,1731 "/>
     <polygon class="fil1" points="3383,1737 3381,1733 "/>
     <polygon class="fil1" points="3957,1741 3954,1739 "/>
     <polygon class="fil1" points="3962,1751 3960,1748 "/>
     <polygon class="fil1" points="3964,1756 3962,1753 "/>
     <polygon class="fil1" points="3967,1764 3964,1760 "/>
     <polygon class="fil1" points="3403,1769 3401,1766 "/>
     <polygon class="fil1" points="3819,1769 3812,1772 "/>
     <polygon class="fil1" points="3855,1771 3848,1769 "/>
     <polygon class="fil1" points="3970,1772 3967,1766 "/>
     <polygon class="fil1" points="3807,1772 3802,1773 "/>
     <polygon class="fil1" points="3799,1774 3794,1777 "/>
     <polygon class="fil1" points="3866,1777 3863,1774 "/>
     <polygon class="fil1" points="3384,1779 3381,1776 "/>
     <polygon class="fil1" points="3411,1779 3408,1776 "/>
     <polygon class="fil1" points="3868,1779 3866,1777 "/>
     <polygon class="fil1" points="3972,1781 3970,1776 "/>
     <polygon class="fil1" points="3389,1786 3386,1784 "/>
     <polygon class="fil1" points="3779,1784 3776,1787 "/>
     <polygon class="fil1" points="3879,1787 3876,1784 "/>
     <polygon class="fil1" points="3974,1795 3972,1789 "/>
     <polygon class="fil1" points="3396,1796 3393,1794 "/>
     <polygon class="fil1" points="3828,1797 3822,1798 "/>
     <polygon class="fil1" points="3856,1799 3848,1797 "/>
     <polygon class="fil1" points="3818,1799 3813,1802 "/>
     <polygon class="fil1" points="3899,1802 3896,1799 "/>
     <polygon class="fil1" points="3812,1802 3808,1804 "/>
     <polygon class="fil1" points="3806,1804 3803,1806 "/>
     <polygon class="fil1" points="3872,1807 3869,1804 "/>
     <polygon class="fil1" points="3406,1809 3404,1807 "/>
     <polygon class="fil1" points="3909,1809 3907,1806 "/>
     <polygon class="fil1" points="3443,1812 3441,1809 "/>
     <polygon class="fil1" points="3753,1810 3751,1812 "/>
     <polygon class="fil1" points="3977,1815 3974,1803 "/>
     <polygon class="fil1" points="3446,1814 3443,1812 "/>
     <polygon class="fil1" points="3917,1815 3914,1812 "/>
     <polygon class="fil1" points="3456,1822 3454,1819 "/>
     <polygon class="fil1" points="3788,1819 3786,1821 "/>
     <polygon class="fil1" points="3927,1822 3924,1819 "/>
     <polygon class="fil1" points="3897,1824 3894,1821 "/>
     <polygon class="fil1" points="3464,1827 3461,1824 "/>
     <polygon class="fil1" points="3365,1829 3368,1823 "/>
     <polygon class="fil1" points="3904,1829 3901,1827 "/>
     <polygon class="fil1" points="3472,1832 3469,1829 "/>
     <polygon class="fil1" points="3942,1832 3940,1829 "/>
     <polygon class="fil1" points="3479,1837 3476,1834 "/>
     <polygon class="fil1" points="3916,1837 3914,1834 "/>
     <polygon class="fil1" points="3485,1839 3481,1837 "/>
     <polygon class="fil1" points="3955,1839 3952,1837 "/>
     <polygon class="fil1" points="3801,1842 3798,1839 "/>
     <polygon class="fil1" points="3925,1842 3922,1839 "/>
     <polygon class="fil1" points="3980,1842 3977,1829 "/>
     <polygon class="fil1" points="3929,1844 3926,1842 "/>
     <polygon class="fil1" points="3444,1847 3441,1844 "/>
     <polygon class="fil1" points="3968,1847 3964,1844 "/>
     <polygon class="fil1" points="3447,1850 3444,1847 "/>
     <polygon class="fil1" points="3505,1850 3501,1847 "/>
     <polygon class="fil1" points="3761,1849 3763,1844 "/>
     <polygon class="fil1" points="3973,1849 3969,1847 "/>
     <polygon class="fil1" points="3361,1852 3363,1846 "/>
     <polygon class="fil1" points="3509,1852 3506,1850 "/>
     <polygon class="fil1" points="3813,1852 3811,1849 "/>
     <polygon class="fil1" points="3977,1852 3973,1850 "/>
     <polygon class="fil1" points="3515,1854 3511,1852 "/>
     <polygon class="fil1" points="3947,1854 3944,1852 "/>
     <polygon class="fil1" points="3457,1857 3454,1854 "/>
     <polygon class="fil1" points="3522,1857 3518,1854 "/>
     <polygon class="fil1" points="3953,1857 3949,1854 "/>
     <polygon class="fil1" points="3528,1859 3523,1857 "/>
     <polygon class="fil1" points="3823,1860 3821,1857 "/>
     <polygon class="fil1" points="3957,1859 3954,1857 "/>
     <polygon class="fil1" points="3534,1862 3531,1860 "/>
     <polygon class="fil1" points="3962,1862 3959,1860 "/>
     <polygon class="fil1" points="3467,1864 3464,1862 "/>
     <polygon class="fil1" points="3542,1865 3538,1862 "/>
     <polygon class="fil1" points="3968,1864 3965,1862 "/>
     <polygon class="fil1" points="3550,1867 3544,1864 "/>
     <polygon class="fil1" points="3973,1867 3969,1864 "/>
     <polygon class="fil1" points="3474,1869 3471,1867 "/>
     <polygon class="fil1" points="3557,1869 3553,1868 "/>
     <polygon class="fil1" points="3356,1875 3358,1869 "/>
     <polygon class="fil1" points="3577,1875 3570,1872 "/>
     <polygon class="fil1" points="3991,1874 3987,1872 "/>
     <polygon class="fil1" points="3486,1877 3483,1875 "/>
     <polygon class="fil1" points="3587,1877 3582,1875 "/>
     <polygon class="fil1" points="3996,1877 3992,1874 "/>
     <polygon class="fil1" points="3599,1880 3593,1877 "/>
     <polygon class="fil1" points="3854,1880 3851,1877 "/>
     <polygon class="fil1" points="3630,1885 3624,1883 "/>
     <polygon class="fil1" points="4018,1885 4013,1881 "/>
     <polygon class="fil1" points="3353,1887 3355,1882 "/>
     <polygon class="fil1" points="3505,1887 3502,1885 "/>
     <polygon class="fil1" points="3648,1887 3639,1885 "/>
     <polygon class="fil1" points="3867,1887 3863,1885 "/>
     <polygon class="fil1" points="4026,1887 4021,1885 "/>
     <polygon class="fil1" points="3510,1889 3507,1887 "/>
     <polygon class="fil1" points="4034,1889 4029,1887 "/>
     <polygon class="fil1" points="4044,1893 4037,1889 "/>
     <polygon class="fil1" points="3528,1897 3524,1895 "/>
     <polygon class="fil1" points="4066,1897 4060,1895 "/>
     <polygon class="fil1" points="3350,1902 3354,1893 "/>
     <polygon class="fil1" points="3534,1900 3529,1897 "/>
     <polygon class="fil1" points="3540,1902 3536,1900 "/>
     <polygon class="fil1" points="4103,1902 4092,1900 "/>
     <polygon class="fil1" points="4159,1900 4143,1902 "/>
     <polygon class="fil1" points="4192,1902 4187,1900 "/>
     <polygon class="fil1" points="3548,1904 3544,1903 "/>
     <polygon class="fil1" points="3906,1908 3902,1904 "/>
     <polygon class="fil1" points="3562,1910 3557,1907 "/>
     <polygon class="fil1" points="3348,1912 3350,1907 "/>
     <polygon class="fil1" points="3917,1912 3914,1910 "/>
     <polygon class="fil1" points="3924,1915 3920,1912 "/>
     <polygon class="fil1" points="4193,1912 4191,1915 "/>
     <polygon class="fil1" points="3766,1653 3763,1651 "/>
     <polygon class="fil1" points="4191,1915 4189,1918 "/>
     <polygon class="fil1" points="3605,1919 3599,1917 "/>
     <polygon class="fil1" points="3346,1923 3348,1917 "/>
     <polygon class="fil1" points="3945,1923 3940,1919 "/>
     <polygon class="fil1" points="3397,1475 3392,1477 "/>
     <polygon class="fil1" points="3952,1925 3948,1923 "/>
     <polygon class="fil1" points="3672,1927 3655,1925 "/>
     <polygon class="fil1" points="3970,1930 3964,1927 "/>
     <polygon class="fil1" points="4168,1927 4163,1930 "/>
     <polygon class="fil1" points="3907,1932 3903,1930 "/>
     <polygon class="fil1" points="3979,1933 3974,1930 "/>
     <polygon class="fil1" points="3343,1935 3346,1928 "/>
     <polygon class="fil1" points="3988,1934 3983,1933 "/>
     <polygon class="fil1" points="4151,1933 4147,1934 "/>
     <polygon class="fil1" points="3437,1477 3426,1474 "/>
     <polygon class="fil1" points="3920,1937 3916,1935 "/>
     <polygon class="fil1" points="4001,1937 3994,1935 "/>
     <polygon class="fil1" points="3876,1942 3874,1935 "/>
     <polygon class="fil1" points="3927,1940 3922,1937 "/>
     <polygon class="fil1" points="3391,1477 3388,1480 "/>
     <polygon class="fil1" points="3469,1482 3462,1479 "/>
     <polygon class="fil1" points="3933,1942 3928,1940 "/>
     <polygon class="fil1" points="4038,1942 4029,1940 "/>
     <polygon class="fil1" points="4108,1940 4096,1943 "/>
     <polygon class="fil1" points="3342,1943 3341,1949 "/>
     <polygon class="fil1" points="3948,1947 3944,1945 "/>
     <polygon class="fil1" points="3959,1950 3952,1947 "/>
     <polygon class="fil1" points="3971,1953 3965,1950 "/>
     <polygon class="fil1" points="3338,1958 3340,1953 "/>
     <polygon class="fil1" points="3645,1480 3642,1482 "/>
     <polygon class="fil1" points="3977,1976 3980,1970 "/>
     <polygon class="fil1" points="3703,1482 3694,1480 "/>
     <polygon class="fil1" points="3974,1986 3978,1980 "/>
     <polygon class="fil1" points="3332,1989 3331,1994 "/>
     <polygon class="fil1" points="3721,1484 3712,1482 "/>
     <polygon class="fil1" points="3972,1995 3970,1999 "/>
     <polygon class="fil1" points="3707,1999 3706,2004 "/>
     <polygon class="fil1" points="3970,2000 3967,2004 "/>
     <polygon class="fil1" points="3328,2006 3330,2000 "/>
     <polygon class="fil1" points="3705,2007 3703,2012 "/>
     <polygon class="fil1" points="3869,2014 3871,2007 "/>
     <polygon class="fil1" points="3325,2021 3328,2014 "/>
     <polygon class="fil1" points="3700,2021 3703,2016 "/>
     <polygon class="fil1" points="3959,2022 3957,2026 "/>
     <polygon class="fil1" points="3325,2026 3323,2031 "/>
     <polygon class="fil1" points="3698,2031 3700,2025 "/>
     <polygon class="fil1" points="3957,2028 3955,2031 "/>
     <polygon class="fil1" points="3383,1487 3387,1483 "/>
     <polygon class="fil1" points="3697,2034 3696,2039 "/>
     <polygon class="fil1" points="3700,2049 3698,2045 "/>
     <polygon class="fil1" points="3520,1489 3514,1487 "/>
     <polygon class="fil1" points="3944,2055 3942,2059 "/>
     <polygon class="fil1" points="3708,2061 3705,2058 "/>
     <polygon class="fil1" points="3942,2060 3940,2064 "/>
     <polygon class="fil1" points="3317,2062 3316,2067 "/>
     <polygon class="fil1" points="3751,1489 3745,1487 "/>
     <polygon class="fil1" points="3627,1489 3624,1492 "/>
     <polygon class="fil1" points="3760,1492 3754,1490 "/>
     <polygon class="fil1" points="3555,1495 3546,1492 "/>
     <polygon class="fil1" points="3484,2068 3479,2071 "/>
     <polygon class="fil1" points="3493,2071 3491,2068 "/>
     <polygon class="fil1" points="3716,2073 3713,2070 "/>
     <polygon class="fil1" points="3469,2073 3464,2076 "/>
     <polygon class="fil1" points="3501,2076 3499,2073 "/>
     <polygon class="fil1" points="3623,1492 3619,1495 "/>
     <polygon class="fil1" points="3313,2079 3315,2073 "/>
     <polygon class="fil1" points="3462,2076 3457,2079 "/>
     <polygon class="fil1" points="3504,2078 3501,2076 "/>
     <polygon class="fil1" points="3859,2078 3861,2070 "/>
     <polygon class="fil1" points="3767,1496 3763,1492 "/>
     <polygon class="fil1" points="3455,2079 3451,2081 "/>
     <polygon class="fil1" points="3721,2080 3718,2078 "/>
     <polygon class="fil1" points="3934,2077 3932,2081 "/>
     <polygon class="fil1" points="3447,2081 3443,2083 "/>
     <polygon class="fil1" points="3512,2084 3509,2081 "/>
     <polygon class="fil1" points="3932,2084 3930,2087 "/>
     <polygon class="fil1" points="3432,2086 3429,2088 "/>
     <polygon class="fil1" points="3310,2093 3314,2084 "/>
     <polygon class="fil1" points="3574,1497 3567,1495 "/>
     <polygon class="fil1" points="3419,2091 3413,2094 "/>
     <polygon class="fil1" points="3728,2093 3726,2090 "/>
     <polygon class="fil1" points="3529,2096 3527,2093 "/>
     <polygon class="fil1" points="3857,2099 3858,2090 "/>
     <polygon class="fil1" points="3404,2096 3400,2098 "/>
     <polygon class="fil1" points="3926,2095 3924,2099 "/>
     <polygon class="fil1" points="3396,2098 3391,2101 "/>
     <polygon class="fil1" points="3497,2101 3495,2098 "/>
     <polygon class="fil1" points="3537,2101 3534,2098 "/>
     <polygon class="fil1" points="3618,1495 3615,1497 "/>
     <polygon class="fil1" points="3390,2101 3385,2103 "/>
     <polygon class="fil1" points="3382,2104 3378,2106 "/>
     <polygon class="fil1" points="3504,2106 3501,2103 "/>
     <polygon class="fil1" points="3736,2105 3733,2103 "/>
     <polygon class="fil1" points="3374,2106 3370,2108 "/>
     <polygon class="fil1" points="3547,2109 3544,2106 "/>
     <polygon class="fil1" points="3368,2108 3363,2111 "/>
     <polygon class="fil1" points="3514,2113 3512,2111 "/>
     <polygon class="fil1" points="3554,2114 3551,2111 "/>
     <polygon class="fil1" points="3741,2114 3738,2111 "/>
     <polygon class="fil1" points="3590,1499 3582,1497 "/>
     <polygon class="fil1" points="3353,2114 3348,2116 "/>
     <polygon class="fil1" points="3346,2116 3341,2119 "/>
     <polygon class="fil1" points="3786,1510 3783,1507 "/>
     <polygon class="fil1" points="3562,2119 3559,2116 "/>
     <polygon class="fil1" points="3916,2118 3919,2113 "/>
     <polygon class="fil1" points="3564,2121 3562,2119 "/>
     <polygon class="fil1" points="3529,2124 3527,2121 "/>
     <polygon class="fil1" points="3916,2121 3915,2124 "/>
     <polygon class="fil1" points="3375,1513 3378,1506 "/>
     <polygon class="fil1" points="3748,2127 3746,2123 "/>
     <polygon class="fil1" points="3580,2132 3577,2129 "/>
     <polygon class="fil1" points="3789,1512 3786,1510 "/>
     <polygon class="fil1" points="3791,1515 3789,1512 "/>
     <polygon class="fil1" points="3590,2139 3587,2136 "/>
     <polygon class="fil1" points="3756,2139 3753,2136 "/>
     <polygon class="fil1" points="3555,2142 3552,2139 "/>
     <polygon class="fil1" points="3373,1526 3371,1531 "/>
     <polygon class="fil1" points="3909,2142 3912,2135 "/>
     <polygon class="fil1" points="3597,2144 3594,2141 "/>
     <polygon class="fil1" points="3761,2146 3758,2143 "/>
     <polygon class="fil1" points="3816,1537 3813,1535 "/>
     <polygon class="fil1" points="3819,1540 3816,1537 "/>
     <polygon class="fil1" points="3821,1542 3819,1540 "/>
     <polygon class="fil1" points="3572,2154 3569,2151 "/>
     <polygon class="fil1" points="3615,2157 3612,2154 "/>
     <polygon class="fil1" points="3824,1545 3821,1542 "/>
     <polygon class="fil1" points="3768,2159 3766,2156 "/>
     <polygon class="fil1" points="3625,2164 3622,2161 "/>
     <polygon class="fil1" points="3826,1547 3824,1545 "/>
     <polygon class="fil1" points="3590,2166 3587,2163 "/>
     <polygon class="fil1" points="3632,2169 3630,2166 "/>
     <polygon class="fil1" points="3597,2171 3595,2169 "/>
     <polygon class="fil1" points="3640,2174 3637,2171 "/>
     <polygon class="fil1" points="3861,2175 3859,2171 "/>
     <polygon class="fil1" points="3923,2173 3919,2171 "/>
     <polygon class="fil1" points="3863,2180 3861,2176 "/>
     <polygon class="fil1" points="3944,2180 3941,2174 "/>
     <polygon class="fil1" points="3650,2182 3648,2179 "/>
     <polygon class="fil1" points="3597,2187 3600,2181 "/>
     <polygon class="fil1" points="3829,1550 3826,1547 "/>
     <polygon class="fil1" points="3869,2189 3866,2187 "/>
     <polygon class="fil1" points="3668,2194 3665,2191 "/>
     <polygon class="fil1" points="3597,2193 3595,2198 "/>
     <polygon class="fil1" points="3831,1553 3829,1550 "/>
     <polygon class="fil1" points="3675,2199 3672,2196 "/>
     <polygon class="fil1" points="3876,2199 3874,2197 "/>
     <polygon class="fil1" points="3879,2202 3876,2199 "/>
     <polygon class="fil1" points="3836,1557 3833,1555 "/>
     <polygon class="fil1" points="3486,2201 3484,2204 "/>
     <polygon class="fil1" points="3839,1560 3836,1557 "/>
     <polygon class="fil1" points="3481,2212 3484,2207 "/>
     <polygon class="fil1" points="3591,2213 3595,2204 "/>
     <polygon class="fil1" points="3693,2212 3690,2209 "/>
     <polygon class="fil1" points="3936,2211 3932,2214 "/>
     <polygon class="fil1" points="3478,2216 3481,2212 "/>
     <polygon class="fil1" points="3479,2219 3477,2222 "/>
     <polygon class="fil1" points="3690,2219 3687,2222 "/>
     <polygon class="fil1" points="3842,1562 3839,1560 "/>
     <polygon class="fil1" points="3590,2225 3592,2219 "/>
     <polygon class="fil1" points="3683,2224 3680,2227 "/>
     <polygon class="fil1" points="3474,2231 3471,2235 "/>
     <polygon class="fil1" points="3589,2230 3588,2236 "/>
     <polygon class="fil1" points="3671,2232 3667,2234 "/>
     <polygon class="fil1" points="3662,2236 3659,2239 "/>
     <polygon class="fil1" points="3650,2244 3647,2247 "/>
     <polygon class="fil1" points="3584,2251 3588,2242 "/>
     <polygon class="fil1" points="3930,1917 3926,1915 "/>
     <polygon class="fil1" points="3466,2248 3464,2253 "/>
     <polygon class="fil1" points="3643,2249 3640,2252 "/>
     <polygon class="fil1" points="3770,2251 3769,2255 "/>
     <polygon class="fil1" points="3844,1565 3842,1562 "/>
     <polygon class="fil1" points="3582,2262 3584,2256 "/>
     <polygon class="fil1" points="3461,2261 3459,2265 "/>
     <polygon class="fil1" points="3622,2262 3619,2264 "/>
     <polygon class="fil1" points="3763,2267 3766,2263 "/>
     <polygon class="fil1" points="3456,2271 3459,2267 "/>
     <polygon class="fil1" points="3625,2272 3622,2269 "/>
     <polygon class="fil1" points="3763,2269 3761,2273 "/>
     <polygon class="fil1" points="3580,2275 3582,2269 "/>
     <polygon class="fil1" points="3627,2275 3625,2272 "/>
     <polygon class="fil1" points="3456,2274 3454,2277 "/>
     <polygon class="fil1" points="3453,2279 3452,2283 "/>
     <polygon class="fil1" points="3758,2281 3756,2286 "/>
     <polygon class="fil1" points="3643,2287 3640,2284 "/>
     <polygon class="fil1" points="3448,2289 3452,2285 "/>
     <polygon class="fil1" points="3448,2291 3446,2295 "/>
     <polygon class="fil1" points="3574,2299 3577,2292 "/>
     <polygon class="fil1" points="3655,2297 3652,2294 "/>
     <polygon class="fil1" points="3753,2295 3751,2298 "/>
     <polygon class="fil1" points="3657,2300 3655,2297 "/>
     <polygon class="fil1" points="3363,1568 3365,1562 "/>
     <polygon class="fil1" points="3748,2305 3751,2301 "/>
     <polygon class="fil1" points="3846,1568 3844,1565 "/>
     <polygon class="fil1" points="3849,1570 3846,1568 "/>
     <polygon class="fil1" points="3851,1573 3849,1570 "/>
     <polygon class="fil1" points="3443,2304 3441,2308 "/>
     <polygon class="fil1" points="3854,1575 3851,1573 "/>
     <polygon class="fil1" points="3574,2306 3573,2311 "/>
     <polygon class="fil1" points="3670,2310 3667,2307 "/>
     <polygon class="fil1" points="3748,2306 3746,2310 "/>
     <polygon class="fil1" points="3361,1584 3363,1577 "/>
     <polygon class="fil1" points="3441,2309 3439,2313 "/>
     <polygon class="fil1" points="3673,2313 3670,2310 "/>
     <polygon class="fil1" points="3572,2316 3570,2322 "/>
     <polygon class="fil1" points="3874,1598 3871,1595 "/>
     <polygon class="fil1" points="3743,2319 3741,2324 "/>
     <polygon class="fil1" points="3436,2322 3434,2326 "/>
     <polygon class="fil1" points="3687,2325 3685,2322 "/>
     <polygon class="fil1" points="3738,2329 3741,2325 "/>
     <polygon class="fil1" points="3430,2331 3434,2327 "/>
     <polygon class="fil1" points="3700,2335 3698,2332 "/>
     <polygon class="fil1" points="3877,1600 3874,1598 "/>
     <polygon class="fil1" points="3572,2346 3569,2342 "/>
     <polygon class="fil1" points="3712,2345 3710,2342 "/>
     <polygon class="fil1" points="3715,2348 3712,2345 "/>
     <polygon class="fil1" points="3436,2350 3434,2347 "/>
     <polygon class="fil1" points="3718,2350 3715,2348 "/>
     <polygon class="fil1" points="3887,1613 3884,1611 "/>
     <polygon class="fil1" points="3731,2360 3728,2357 "/>
     <polygon class="fil1" points="3894,1623 3891,1620 "/>
     <polygon class="fil1" points="3720,1625 3718,1628 "/>
     <polygon class="fil1" points="3770,2249 3774,2244 "/>
    </g>
    <g>
     <path class="fil1" d="M6875 1838l5 -6 0 0 2 -5 4 -1c4,-3 23,-22 26,-26l2 -5 5 -1c8,-4 15,-12 23,-17 73,-48 135,-70 140,58 4,104 -18,185 -73,238 -43,41 -167,134 -185,21 -8,-46 -3,-101 5,-146 4,-23 9,-40 18,-60 14,-32 22,-37 28,-48zm329 -235l1 -4 4 0c18,-12 29,-27 66,-46 130,-67 141,-4 147,133 3,68 -22,132 -53,171 -24,30 -89,84 -124,98l-3 -109c17,-15 78,-28 77,-125 0,-28 -3,-70 -34,-67 -21,2 -54,29 -63,39 -36,40 -30,109 -28,172 2,66 3,132 4,199 -16,6 -86,47 -95,47 -3,-49 0,-104 -1,-153 -1,-163 -14,-247 101,-354zm-258 -75l-1 5 -5 1c-41,36 -57,192 24,115 46,-43 25,-60 46,-75l70 -50c2,17 -6,59 -11,74 -8,24 -25,56 -26,59l-1 6 -4 1c-9,9 -17,22 -36,41 -6,6 -13,13 -20,19 -20,16 -101,78 -125,50 -4,-2 -2,1 -6,-4 -2,-2 -2,-3 -3,-6 -21,-16 -11,-117 -6,-145 15,-82 39,-94 49,-116l5 -6c3,-2 5,-5 8,-8l8 -7c2,-7 -2,-1 3,-6 4,-5 3,-2 6,-4l28 -27c19,-16 44,-33 67,-42 21,-9 20,-6 41,-2l7 5c3,11 17,26 16,64 -11,7 -70,53 -79,57 -6,-27 -21,-22 -38,-11 -6,4 -13,8 -18,14zm324 1l-1 4 -4 0c-9,5 -18,13 -27,19 -10,6 -19,11 -29,16 -16,8 -48,22 -68,16 -40,-12 -41,-92 -37,-137 6,-63 17,-92 44,-136 17,-27 62,-71 87,-91 19,-15 86,-66 123,-55 42,13 41,97 41,137 1,91 -46,155 -105,208 -7,7 -16,12 -24,20zm108 -495c-2,15 5,8 -10,10 0,-10 -1,-6 10,-10zm-268 199c-2,3 0,2 -3,5 -1,5 2,2 -4,4l-6 3c-4,5 -12,10 -18,15 -6,5 -12,11 -19,16 -7,5 -34,26 -36,31l-3 9 -7 0c-8,3 -59,47 -74,58 -6,5 -17,17 -25,19 -2,3 -2,5 -6,7 -5,4 -2,2 -8,4 -9,20 -91,61 -101,98 -4,14 -2,45 -3,62 -4,84 -4,172 -6,257l-11 451c-1,78 -2,69 94,12 27,-16 55,-32 82,-47l412 -238c14,-8 26,-16 41,-24 71,-39 64,-40 57,-131 -9,-117 -24,-237 -31,-356 -9,-134 -26,-280 -37,-417 -1,-17 0,-44 -10,-54 -14,-6 -56,38 -74,51 -28,20 -102,83 -136,110 -11,9 -60,51 -68,54z"/>
     <path class="fil1" d="M5341 1989l-5 -1 0 -114c6,-1 78,-4 87,2 20,0 37,13 43,28 7,18 7,48 -3,62 -22,31 -78,22 -121,24zm-4 -189l0 -104c14,-4 71,-2 87,1 30,6 44,17 44,49 0,33 -11,47 -41,53 -11,2 -80,3 -91,1zm217 -131c0,0 -1,-1 -1,-1 0,0 -1,-1 -1,-1 -2,-3 -1,0 -3,-5 -30,-33 -70,-49 -131,-53 -34,-2 -146,-3 -170,11 -20,11 -14,52 -14,79l0 273c0,94 -10,92 84,101 50,5 123,4 167,-12 46,-16 78,-43 87,-97 4,-27 3,-57 -7,-79 -14,-31 -32,-36 -42,-45 0,0 -1,-1 -1,-1 0,-1 0,-1 -1,-1 25,-19 40,-31 48,-70 4,-20 2,-59 -6,-79 -3,-8 -7,-13 -8,-19z"/>
     <path class="fil1" d="M5889 1900c-5,56 -28,86 -82,83 -52,-2 -68,-43 -70,-93 -2,-59 -11,-153 37,-181 24,-14 65,-10 85,5 21,16 28,45 30,79 1,30 2,78 -1,107zm65 -236l-8 -6c0,-1 -3,-3 -3,-3 -3,-4 0,1 -3,-5 -3,-1 -2,0 -5,-2 -8,-5 -14,-12 -26,-18 -11,-5 -25,-11 -36,-14 -84,-21 -174,-2 -218,76 -28,49 -24,117 -24,180 0,94 29,166 114,194 26,9 61,11 91,9 63,-6 103,-32 130,-74 31,-49 29,-110 29,-175 -1,-132 -33,-136 -41,-161z"/>
     <path class="fil4" d="M7209 1599c-2,4 1,2 -5,4 -115,107 -102,191 -101,354 0,50 -2,104 1,153 9,0 78,-41 95,-47 -1,-67 -2,-132 -4,-199 -2,-63 -9,-132 28,-172 9,-10 42,-37 63,-39 31,-3 34,39 34,67 0,97 -60,110 -77,125l3 109c35,-13 100,-67 124,-98 31,-39 57,-103 53,-171 -6,-137 -18,-200 -147,-133 -37,19 -48,35 -66,46z"/>
     <path class="fil1" d="M6066 1792l4 1 1 5c5,15 30,33 44,42 4,2 6,4 9,5 6,4 3,2 8,3 12,1 10,0 18,11 2,4 24,15 31,19 11,7 22,13 33,20 10,6 23,14 30,23 8,9 8,30 3,43 -20,43 -141,6 -179,16 -6,10 -5,62 -2,76 4,6 32,11 40,13 45,7 95,11 139,3 102,-19 138,-107 110,-181 -26,-67 -119,-90 -176,-129l-4 -1 -6 -1 -1 -4 -2 -6c-11,-8 -6,-26 -2,-37l5 -6c30,-12 55,-8 89,-6 12,1 77,7 87,4 11,-3 7,-72 3,-77 -4,-6 -15,-7 -24,-8 -61,-10 -146,-17 -202,4 -92,35 -75,145 -54,170z"/>
     <path class="fil1" d="M6697 1862l-6 -5 -4 0 -1 -5 -3 -6c-7,-3 -14,-10 -22,-16 -21,-15 -94,-50 -124,-69 -30,-19 -18,-36 -14,-52 3,-6 -2,-2 5,-4 58,-18 159,6 174,-2 5,-3 3,2 5,-5l1 -62c0,-19 -18,-18 -50,-22 -41,-5 -95,-10 -137,-3 -44,7 -76,23 -94,52 -19,31 -22,83 -7,118 21,47 71,70 120,99 36,21 75,36 67,76 -11,56 -133,15 -180,24 -5,12 -6,62 -2,75 15,17 90,20 118,20 75,1 154,-21 173,-104 15,-66 -18,-102 -20,-110z"/>
     <path class="fil2" d="M7472 1667c3,35 18,218 23,242 5,25 19,39 39,48 43,17 85,33 127,49 84,33 104,52 96,-11 -7,-52 -13,-104 -20,-156 -9,-69 -2,-103 -51,-125 -40,-18 -81,-37 -120,-56 -88,-43 -100,-52 -94,9z"/>
     <path class="fil4" d="M7269 1428l1 3 -2 5 -6 1 -5 1c-3,6 -14,12 -20,16 -5,4 -17,11 -26,11 -23,2 -26,-25 -27,-45 -1,-49 13,-80 39,-103 12,-11 27,-24 43,-30 46,-18 37,73 29,98 -4,14 -11,25 -19,35 -1,1 -3,3 -4,4 -4,4 -2,2 -4,3zm-5 106l5 -4c8,-8 16,-13 24,-20 59,-53 106,-118 105,-208 0,-40 0,-124 -41,-137 -37,-11 -103,40 -123,55 -25,20 -70,64 -87,91 -27,44 -39,73 -44,136 -4,45 -3,126 37,137 20,6 52,-8 68,-16 10,-5 19,-10 29,-16 10,-6 18,-14 27,-19z"/>
     <path class="fil2" d="M7448 1308c-2,1 -7,-1 -8,14l19 213c1,12 2,26 5,37 3,9 12,22 17,26 11,9 39,21 55,28 19,9 38,19 58,27 20,8 38,17 57,26 84,40 69,40 49,-124 -3,-24 -6,-49 -9,-73 -9,-69 -18,-62 -76,-93l-137 -73c-8,-4 -20,-13 -29,-8z"/>
     <path class="fil2" d="M7862 1796c-14,-7 -102,-51 -113,-47 -13,6 -2,54 0,69 5,42 23,195 30,214 10,25 22,28 45,38l116 46c13,6 46,22 61,19 13,-14 2,-48 -1,-69 -6,-39 -29,-192 -36,-209 -10,-22 -23,-25 -46,-37 -18,-9 -37,-16 -55,-26z"/>
     <path class="fil4" d="M6996 1933c-4,25 -5,34 -16,53 -16,28 -68,65 -81,30 -6,-15 -5,-50 -3,-67 7,-48 23,-68 53,-87 51,-32 54,29 47,70zm-78 -140l-7 6c-3,4 -22,23 -26,26l-6 7 0 0c-2,6 -1,4 -5,6 -6,11 -14,17 -28,48 -9,21 -14,38 -18,60 -8,44 -13,100 -5,146 19,113 142,20 185,-21 55,-53 77,-134 73,-238 -5,-128 -67,-106 -140,-58 -8,5 -15,13 -23,17z"/>
     <path class="fil2" d="M7499 2187c25,0 48,-15 68,-25l122 -62c61,-29 73,-34 25,-53l-160 -63c-60,-24 -70,-20 -132,17 -10,6 -19,10 -29,16l-86 48c-10,6 -19,10 -29,16 -11,7 -22,9 -23,22 2,10 46,22 57,26 33,11 162,59 186,59z"/>
     <path class="fil2" d="M7419 1018c-10,11 -3,42 -1,66 2,26 3,51 6,77 4,50 6,95 36,124 26,24 114,66 155,86 75,37 70,55 47,-114 -6,-46 -6,-103 -36,-123 -16,-11 -34,-20 -49,-29l-127 -76c-9,-6 -16,-12 -30,-10z"/>
     <path class="fil2" d="M7915 1803c15,7 45,29 41,-8 -6,-44 -15,-91 -22,-135 -7,-43 -9,-101 -37,-119l-153 -82c-15,-8 -46,-29 -41,9 6,46 12,92 18,138 16,117 3,107 88,147l106 50z"/>
     <path class="fil2" d="M8216 2139c-8,-39 -29,-168 -41,-188 -6,-10 -10,-13 -21,-18l-79 -37c-18,-8 -36,-16 -52,-25 -16,-8 -44,-28 -40,10 5,43 15,89 22,132 4,28 15,108 25,126 12,21 21,20 46,31l110 44c19,8 45,24 41,-11 -2,-19 -9,-45 -12,-65z"/>
     <path class="fil2" d="M7013 2236c5,9 15,10 28,14 45,13 197,61 222,59 23,-2 152,-71 191,-90 38,-19 14,-25 -7,-32 -47,-15 -192,-69 -221,-68 -23,1 -42,14 -59,24 -17,10 -36,19 -54,29 -18,10 -36,20 -53,30 -18,10 -46,20 -48,34z"/>
     <path class="fil2" d="M7668 1168c-7,14 1,48 4,66 3,22 6,44 9,66 5,39 6,98 29,120 10,9 33,19 47,28 17,10 32,17 49,26 17,9 32,18 48,26 62,33 59,36 46,-42l-21 -129c-10,-57 -14,-52 -66,-83l-116 -70c-8,-5 -16,-13 -29,-9z"/>
     <path class="fil2" d="M7537 2198c6,12 43,20 57,25l121 41c23,8 40,13 64,3l110 -50c19,-9 37,-17 56,-25 23,-10 47,-16 47,-32 -12,-9 -42,-19 -57,-25 -19,-7 -39,-15 -58,-23 -48,-19 -84,-42 -125,-26l-163 82c-12,6 -46,19 -50,31z"/>
     <path class="fil4" d="M6921 1470l-2 8 -7 2 -8 7c-3,3 -5,6 -8,8l-5 6c-9,22 -34,33 -49,116 -5,29 -15,129 6,145l7 2 1 8c24,28 105,-34 125,-50 7,-6 14,-13 20,-19 19,-18 27,-32 36,-41 2,-5 -1,0 1,-3 2,-2 1,-2 4,-3 1,-3 18,-34 26,-59 5,-15 13,-57 11,-74l-70 50c-22,16 -1,32 -46,75 -81,76 -66,-80 -24,-115 4,-6 0,-3 6,-6 5,-6 11,-10 18,-14 17,-11 32,-16 38,11 9,-4 68,-50 79,-57 1,-37 -13,-53 -16,-64 -8,-2 -4,-1 -7,-5 -21,-5 -20,-7 -41,2 -23,10 -48,26 -67,42l-28 27z"/>
     <path class="fil2" d="M8115 1898c72,34 61,38 34,-105 -5,-25 -17,-103 -26,-120 -10,-19 -22,-22 -40,-33l-95 -51c-12,-6 -37,-25 -51,-21 -8,13 2,49 5,64 3,21 7,42 10,63 4,25 15,106 23,122 10,20 18,22 40,33l99 47z"/>
     <path class="fil2" d="M7036 2418c30,0 136,-60 176,-79 29,-14 32,-18 -6,-30l-90 -26c-20,-6 -41,-12 -61,-18 -61,-17 -64,-26 -119,5 -11,6 -139,73 -140,80 -1,12 39,18 54,22l123 31c19,5 44,13 63,13z"/>
     <path class="fil2" d="M8112 1636c8,-13 -1,-39 -4,-55 -7,-38 -26,-155 -38,-174 -10,-16 -65,-45 -85,-57 -12,-7 -82,-52 -90,-50 -13,4 -1,46 1,58 6,38 23,158 35,177 13,21 63,41 87,55 14,8 82,48 94,47z"/>
     <path class="fil2" d="M7293 2317c6,12 34,16 53,22 43,12 148,49 178,42 12,-3 136,-60 155,-69 24,-12 42,-14 44,-30 -9,-7 -91,-33 -112,-40 -41,-13 -87,-36 -120,-27 -13,3 -133,63 -153,74 -15,8 -42,17 -47,28z"/>
     <path class="fil2" d="M7784 2283c7,9 15,9 27,13l83 28c52,18 72,32 115,14 34,-14 69,-30 104,-44 17,-7 36,-15 53,-22l38 -17c6,-4 6,-4 7,-12 -7,-5 -42,-18 -54,-22l-108 -42c-23,-9 -42,-3 -63,5l-154 70c-19,9 -44,16 -48,28z"/>
     <path class="fil2" d="M7074 2424c3,6 3,6 10,9l42 11c36,9 146,40 169,38 18,-2 79,-31 98,-40 21,-10 87,-35 91,-47 -4,-6 -4,-5 -12,-7 -45,-14 -184,-57 -209,-54 -20,2 -145,65 -181,84 -6,3 -6,3 -9,8z"/>
     <path class="fil2" d="M7541 2392c7,9 90,30 106,35 31,9 79,29 110,17l145 -61c13,-6 40,-13 43,-25 -6,-9 -87,-33 -103,-38 -40,-13 -78,-32 -112,-19l-98 44c-17,7 -33,14 -49,22 -17,8 -41,15 -44,26z"/>
     <path class="fil2" d="M7322 2489c8,10 35,13 50,17 38,10 131,38 158,31 13,-3 134,-55 161,-66 10,-4 17,-4 18,-15 -9,-8 -83,-26 -100,-31 -28,-8 -79,-28 -109,-20l-136 60c-12,6 -37,12 -41,23z"/>
     <path class="fil1" d="M7218 1333c2,-7 2,-6 7,-8 0,10 2,8 -7,8zm40 105l1 -9 10 -2c2,-1 0,1 4,-3 1,-1 3,-3 4,-4 8,-10 15,-22 19,-35 8,-25 17,-116 -29,-98 -16,6 -31,20 -43,30 -26,23 -40,55 -39,103 1,20 3,47 27,45 9,-1 20,-8 26,-11 6,-4 17,-10 20,-16z"/>
     <path class="fil1" d="M6996 1933c7,-42 4,-103 -47,-70 -30,19 -46,39 -53,87 -3,17 -3,52 3,67 13,35 65,-3 81,-30 11,-19 12,-29 16,-53z"/>
     <path class="fil1" d="M5341 1989c-6,-9 -3,-43 -3,-55 0,-20 -1,-40 0,-59 28,-2 57,1 85,1 -9,-6 -81,-3 -87,-2l0 114 5 1z"/>
     <path class="fil1" d="M6685 1852l6 5 6 5c-2,-12 -2,-13 -14,-16l3 6z"/>
     <path class="fil1" d="M6164 1749l2 6 7 5 4 1 -1 -6c-4,-3 -6,-7 -13,-6z"/>
     <path class="fil1" d="M5941 1650c3,5 0,1 3,5 0,0 2,3 3,3l8 6 1 -6c-4,-4 -9,-8 -14,-8z"/>
     <path class="fil1" d="M6132 1849c3,4 2,4 8,7 4,2 6,3 10,4 -8,-11 -6,-10 -18,-11z"/>
     <path class="fil5" d="M7097 1245l6 -3 4 -4c3,-3 1,-2 3,-5 -10,-1 -6,1 -12,5l-1 7z"/>
     <path class="fil6" d="M7368 1044c15,-2 8,5 10,-10 -11,3 -9,-1 -10,10z"/>
     <path class="fil7" d="M7258 1439l5 -1c3,-7 -1,-4 7,-7l-1 -3 -10 2 -1 9z"/>
     <path class="fil8" d="M6901 1404c6,-2 3,0 8,-4 3,-3 4,-5 6,-7l-12 4 -2 7z"/>
     <path class="fil1" d="M6050 1765c0,-7 1,-2 -4,-6 0,0 -9,0 0,11 0,-1 4,-1 4,-5z"/>
     <path class="fil9" d="M7218 1333c9,0 7,2 7,-8 -6,3 -6,2 -7,8z"/>
     <path class="fil10" d="M6912 1480l7 -2 2 -8c-3,2 -2,-1 -6,4 -5,6 -1,0 -3,6z"/>
     <path class="fil7" d="M7013 1316l7 0 3 -9c-4,2 -3,0 -6,3 -4,4 -2,2 -4,6z"/>
     <path class="fil11" d="M6857 1773l-1 -8 -7 -2c1,3 1,4 3,6 4,5 1,2 6,4z"/>
     <path class="fil12" d="M7262 1437l6 -1 2 -5c-8,3 -4,0 -7,7z"/>
     <path class="fil13" d="M6939 1534l5 -1 1 -5c-7,3 -3,-1 -6,6z"/>
     <path class="fil1" d="M5553 1670l-1 -6 -4 -1c2,5 0,1 3,5 0,0 1,1 1,1 0,0 1,1 1,1z"/>
     <path class="fil14" d="M7037 1664l4 -1 1 -6c-2,2 -2,1 -4,3 -2,3 1,-2 -1,3z"/>
     <path class="fil13" d="M7204 1603c6,-2 3,-1 5,-4l-4 0 -1 4z"/>
     <polygon class="fil1" points="6174,1761 6167,1755 6168,1759 "/>
     <polygon class="fil14" points="6912,1799 6919,1793 6914,1794 "/>
     <polygon class="fil14" points="6880,1832 6886,1825 6881,1826 "/>
     <polygon class="fil1" points="6691,1857 6685,1852 6687,1857 "/>
     <polygon class="fil1" points="6071,1799 6070,1793 6066,1792 "/>
     <polygon class="fil13" points="7264,1534 7268,1533 7269,1530 "/>
     <path class="fil15" d="M7064 1404l-7 -5c3,4 -1,2 7,5z"/>
     <path class="fil1" d="M6523 1709l5 -4c-7,1 -2,-2 -5,4z"/>
     <path class="fil16" d="M7102 1242c6,-1 3,2 4,-4l-4 4z"/>
     <path class="fil1" d="M6163 1712c4,-2 3,0 5,-6l-5 6z"/>
     <path class="fil17" d="M6875 1838c3,-2 2,0 5,-6l-5 6z"/>
     <polygon class="fil15" points="6891,1502 6896,1495 "/>
    </g>
   </g>
  </g>
  <polygon class="fil18" points="0,0 12779,0 12779,3688 0,3688 "/>
 </g>
</svg>
