<?xml version="1.0"?>
<svg xmlns="http://www.w3.org/2000/svg" height="512px" viewBox="0 -22 512.00098 512" width="512px"><path d="m497.074219 258.453125c-8.035157-4.25-17.675781-4.339844-25.785157-.234375l-31.554687 15.964844c23.484375-28.9375 37.582031-65.789063 37.582031-105.878906 0-92.804688-75.5-168.304688-168.300781-168.304688-92.804687 0-168.304687 75.5-168.304687 168.304688 0 24.765624 5.375 48.914062 15.683593 71.023437-1.542969-.53125-3.070312-1.03125-4.570312-1.460937-7.160157-2.0625-20.652344-2.972657-54.992188 12.800781-6.617187 3.039062-12.832031 6.164062-18.058593 8.910156v-18.878906c0-5.550781-4.5-10.050781-10.050782-10.050781h-58.671875c-5.550781 0-10.050781 4.5-10.050781 10.050781v217.660156c0 5.550781 4.5 10.050781 10.050781 10.050781h58.671875c5.550782 0 10.050782-4.5 10.050782-10.050781v-17.699219h121.96875c5.546874 0 10.050781-4.5 10.050781-10.046875 0-5.550781-4.503907-10.050781-10.050781-10.050781h-121.96875v-138.167969c26.007812-14.734375 57.765624-28.011719 67.496093-25.210937 6.296875 1.808594 13.832031 5.140625 21.808594 8.664062 17.121094 7.566406 38.429687 16.984375 62.261719 17.996094 32.355468 1.378906 62.589844 12.085938 66.855468 17.417969 2.480469 4.464843 3.25 13.039062 2.585938 17.671875h-117.90625c-15.042969 0-23.269531 6.320312-27.523438 11.621094-10.542968 13.144531-6.84375 31.554687-6.386718 33.609374 1.203125 5.417969 6.578125 8.867188 11.996094 7.65625 5.421874-1.203124 8.84375-6.542968 7.640624-11.960937-.597656-2.828125-1.421874-11.984375 2.460938-16.769531.816406-1.003906 3.292969-4.058594 11.8125-4.058594h122.875c.015625 0 .03125.003906.046875.003906.011719 0 .023437-.003906.035156-.003906h10.328125c26.78125 0 53.570313-6.390625 77.464844-18.484375l87.738281-44.398437c2.300781-1.164063 5.03125-1.136719 7.308594.066406 2.609375 1.382812 4.230469 4.074218 4.230469 7.027344v14.027343c0 2.539063-1.230469 4.945313-3.285156 6.4375l-108.601563 78.6875c-13.625 9.871094-29.613281 16.460938-46.253906 19.0625l-54.921875 8.679688c-5.480469.863281-9.226563 6.011719-8.359375 11.496093.785156 4.949219 5.054687 8.480469 9.914062 8.480469.523438 0 1.050781-.039062 1.582031-.125l54.90625-8.675781c19.746094-3.085938 38.742188-10.914062 54.925782-22.640625l108.601562-78.683594c7.257813-5.261719 11.589844-13.753906 11.589844-22.714843v-14.027344c0-10.417969-5.71875-19.917969-14.925781-24.792969zm-438.402344 189.855469h-38.570313v-197.5625h38.570313zm222.742187-176.097656c-15.578124-4.671876-33.882812-7.753907-50.21875-8.445313-15.964843-.679687-30.992187-6.03125-44.730468-11.835937-.21875-.476563-.464844-.941407-.761719-1.390626-16.285156-24.363281-24.890625-52.800781-24.890625-82.234374 0-81.71875 66.480469-148.203126 148.203125-148.203126 81.71875 0 148.203125 66.480469 148.203125 148.203126 0 77.972656-60.527344 142.070312-137.0625 147.785156v-68.265625c.015625-.488281.03125-1.390625 0-2.644531v-25.300782c28.15625-.121094 51.523438-8.332031 69.566406-24.488281 33.132813-29.671875 35.589844-75.125 35.679688-77.046875.136718-2.949219-1.03125-5.804688-3.191406-7.816406-2.15625-2.011719-5.097657-2.972656-8.019532-2.625-60.769531 7.148437-88.59375 34.144531-101.234375 55.535156-8.039062 13.605469-11.089843 26.679688-12.226562 35.519531-6.671875-7.078125-14.804688-12.871093-24.015625-16.847656l-42.144532-18.179687c-.621093-.269532-1.265624-.472657-1.929687-.609376-1.40625-.296874-2.066406-.460937-2.519531-.570312-1.625-.410156-2.253906-.496094-5.875-.921875-2.9375-.347656-5.863282.617187-8.023438 2.625-2.15625 2.011719-3.324218 4.871094-3.1875 7.816406.074219 1.617188 2.144532 39.921875 30.089844 64.945313 14.871094 13.320312 33.992188 20.238281 56.929688 20.671875v21.464843c-5.0625-2.542968-11.273438-4.929687-18.640626-7.140624zm39.492188-72.429688c1.035156-6.664062 3.503906-16.214844 9.355469-26.117188 13.425781-22.722656 38.042969-37.445312 73.265625-43.867187-2.792969 13.429687-9.808594 35.03125-27.210938 50.621094-14.074218 12.601562-32.675781 19.09375-55.410156 19.363281zm-21.773438 37.988281c-17.355468-.574219-31.609374-5.742187-42.476562-15.417969-12.046875-10.730468-17.972656-25.214843-20.859375-36.007812l32.957031 14.21875c15.71875 6.78125 27.101563 20.835938 30.378906 37.207031zm0 0" fill="#832153"/><path d="m246.054688 419.210938-.277344-.179688c-4.660156-3.019531-10.882813-1.6875-13.898438 2.96875-3.019531 4.660156-1.691406 10.882812 2.96875 13.898438l.277344.183593c1.691406 1.09375 3.582031 1.613281 5.457031 1.613281 3.292969 0 6.519531-1.613281 8.441407-4.585937 3.019531-4.65625 1.691406-10.878906-2.96875-13.898437zm0 0" fill="#832153"/><path d="m216.285156 120.988281c.179688-.554687 18.621094-55.28125 76.421875-60.644531 5.523438-.511719 9.589844-5.40625 9.078125-10.933594-.515625-5.527344-5.382812-9.585937-10.9375-9.078125-29.347656 2.722657-54.863281 16.445313-73.785156 39.695313-14.152344 17.386718-19.664062 34.046875-19.890625 34.746094-1.71875 5.277343 1.171875 10.949218 6.449219 12.664062 1.03125.335938 2.078125.496094 3.109375.496094 4.238281 0 8.175781-2.699219 9.554687-6.945313zm0 0" fill="#832153"/><path d="m325.101562 61.222656.277344.179688c1.691406 1.097656 3.582032 1.617187 5.457032 1.617187 3.292968 0 6.519531-1.617187 8.441406-4.585937 3.019531-4.65625 1.691406-10.878906-2.96875-13.898438l-.277344-.179687c-4.660156-3.019531-10.882812-1.6875-13.898438 2.96875-3.019531 4.660156-1.6875 10.882812 2.96875 13.898437zm0 0" fill="#832153"/></svg>
