<?xml version="1.0" encoding="iso-8859-1"?>
<!-- Generator: Adobe Illustrator 18.0.0, SVG Export Plug-In . SVG Version: 6.00 Build 0)  -->
<!DOCTYPE svg PUBLIC "-//W3C//DTD SVG 1.1//EN" "http://www.w3.org/Graphics/SVG/1.1/DTD/svg11.dtd">
<svg xmlns="http://www.w3.org/2000/svg" xmlns:xlink="http://www.w3.org/1999/xlink" version="1.1" id="Capa_1" x="0px" y="0px" viewBox="0 0 296.934 296.934" style="enable-background:new 0 0 296.934 296.934;" xml:space="preserve" width="512px" height="512px">
<path d="M294.737,209.65l-39.61-39.611l37.811-75.622c4.003-8.005,4.076-16.19,0.202-22.459c-3.874-6.268-11.228-9.862-20.177-9.862  H220.1c-13.01-27.539-41.045-46.646-73.471-46.646c-32.421,0-60.454,19.107-73.464,46.646h-31.61V17.013c0-4.143-3.357-7.5-7.5-7.5  H7.5c-4.143,0-7.5,3.357-7.5,7.5s3.357,7.5,7.5,7.5h19.055v221.924c0,4.143,3.357,7.5,7.5,7.5h9.612  c-1.838,3.271-2.894,7.056-2.894,11.089c0,12.349,9.852,22.396,21.961,22.396c12.11,0,21.963-10.047,21.963-22.396  c0-4.033-1.057-7.817-2.894-11.089h76.465c-1.837,3.271-2.893,7.056-2.893,11.089c0,12.349,9.851,22.396,21.961,22.396  c12.11,0,21.963-10.047,21.963-22.396c0-4.033-1.057-7.817-2.893-11.089h12.921c4.143,0,7.5-3.357,7.5-7.5  c0-4.143-3.357-7.5-7.5-7.5H41.555v-21.625h161.3c7.549,0,15.564-2.494,22.692-6.621l34.077,34.075  c1.406,1.406,3.314,2.196,5.303,2.196c1.989,0,3.897-0.79,5.304-2.197l24.507-24.509  C297.666,217.327,297.666,212.579,294.737,209.65z M177.337,257.63c3.839,0,6.963,3.317,6.963,7.396s-3.124,7.396-6.963,7.396  c-3.838,0-6.961-3.317-6.961-7.396S173.499,257.63,177.337,257.63z M62.734,257.63c3.839,0,6.963,3.317,6.963,7.396  s-3.124,7.396-6.963,7.396c-3.838,0-6.961-3.317-6.961-7.396S58.896,257.63,62.734,257.63z M245.589,155.573h-4.927l-21.781-21.782  c1.661-3.222,3.113-6.544,4.322-9.958h38.255L245.589,155.573z M272.963,77.095c3.634,0,6.338,1.002,7.417,2.749  c1.08,1.746,0.767,4.613-0.858,7.863l-10.563,21.126H226.94c0.597-3.994,0.903-8.06,0.903-12.173c0-6.745-0.841-13.295-2.398-19.565  H272.963z M146.631,30.448c36.51,0.001,66.213,29.703,66.213,66.213c0.001,17.685-6.886,34.312-19.393,46.818  c-12.507,12.506-29.135,19.393-46.82,19.393c-36.509,0-66.211-29.703-66.211-66.212C80.423,60.152,110.124,30.448,146.631,30.448z   M41.555,77.095h26.264c-1.557,6.271-2.398,12.82-2.398,19.565c0,4.137,0.315,8.2,0.915,12.173h-24.78V77.095z M79.136,202.312  H41.555v-31.738h37.581V202.312z M41.555,155.573v-31.74h28.557c2.272,6.381,5.313,12.398,9.024,17.934v13.807H41.555z   M94.136,202.312v-31.738h18.91c5.885,2.686,12.141,4.686,18.672,5.903v25.835H94.136z M184.3,202.312h-37.582v-24.44  c11.797-0.013,23.2-2.539,33.621-7.298h3.961V202.312z M202.854,202.312H199.3v-17.866l15.105,15.104  C210.541,201.285,206.522,202.312,202.854,202.312z M264.927,228.856l-68.253-68.249c2.566-2.016,5.04-4.178,7.384-6.52  c2.343-2.343,4.505-4.817,6.52-7.383l68.249,68.25L264.927,228.856z" fill="#832153"/>
<g>
</g>
<g>
</g>
<g>
</g>
<g>
</g>
<g>
</g>
<g>
</g>
<g>
</g>
<g>
</g>
<g>
</g>
<g>
</g>
<g>
</g>
<g>
</g>
<g>
</g>
<g>
</g>
<g>
</g>
</svg>
